<?xml version="1.0" standalone="no"?>
<!DOCTYPE svg PUBLIC "-//W3C//DTD SVG 20010904//EN"
 "http://www.w3.org/TR/2001/REC-SVG-20010904/DTD/svg10.dtd">
<svg version="1.0" xmlns="http://www.w3.org/2000/svg"
 width="1024.000000pt" height="1024.000000pt" viewBox="0 0 1024.000000 1024.000000"
 preserveAspectRatio="xMidYMid meet">
<metadata>
Created by potrace 1.14, written by Peter Selinger 2001-2017
</metadata>
<g transform="translate(0.000000,1024.000000) scale(0.100000,-0.100000)"
fill="#000000" stroke="none">
<path d="M5067 9064 c-1 -1 -23 -4 -48 -7 -26 -3 -67 -11 -90 -17 -58 -15
-333 -112 -339 -119 -3 -3 -9 -6 -15 -7 -18 -1 -70 -17 -90 -27 -11 -6 -28
-12 -38 -14 -9 -2 -45 -14 -79 -28 -34 -14 -67 -25 -75 -25 -7 0 -13 -4 -13
-10 0 -6 -3 -9 -7 -8 -13 5 -123 -36 -123 -45 0 -4 -4 -6 -10 -2 -5 3 -35 -5
-67 -18 -32 -14 -76 -30 -98 -37 -22 -7 -49 -17 -60 -23 -11 -6 -27 -12 -35
-13 -8 -2 -23 -7 -35 -12 -11 -6 -78 -31 -150 -57 -71 -27 -141 -52 -155 -58
-14 -6 -29 -11 -35 -13 -5 -1 -89 -32 -185 -69 -96 -36 -218 -82 -270 -100
-52 -19 -103 -39 -112 -45 -10 -5 -23 -10 -30 -10 -7 -1 -31 -9 -53 -20 -22
-11 -48 -19 -57 -20 -10 0 -18 -5 -18 -12 0 -6 -3 -9 -6 -5 -5 5 -71 -17 -159
-54 -16 -6 -34 -13 -40 -15 -5 -1 -23 -8 -40 -15 -16 -7 -32 -13 -35 -14 -95
-32 -210 -82 -245 -106 -64 -43 -171 -159 -148 -159 4 0 3 -4 -2 -8 -25 -17
-58 -89 -70 -153 -6 -32 -22 -151 -29 -229 -2 -19 -7 -61 -11 -93 -4 -32 -8
-77 -10 -100 -7 -83 -16 -173 -20 -197 -3 -14 -7 -50 -10 -80 -3 -30 -7 -73
-10 -95 -12 -100 -14 -123 -19 -175 -3 -30 -8 -73 -10 -95 -3 -22 -8 -64 -11
-92 -3 -29 -8 -77 -11 -105 -3 -29 -7 -69 -9 -88 -2 -19 -6 -60 -9 -90 -4 -30
-9 -77 -12 -105 -2 -27 -7 -61 -9 -75 -3 -14 -7 -59 -10 -100 -3 -41 -7 -86
-10 -100 -3 -14 -8 -52 -10 -85 -3 -33 -8 -78 -11 -100 -3 -22 -7 -58 -9 -80
-4 -54 -15 -154 -20 -185 -3 -14 -7 -55 -10 -90 -3 -36 -8 -83 -11 -105 -3
-22 -7 -56 -9 -75 -8 -81 -16 -156 -20 -175 -2 -11 -4 -23 -4 -27 -1 -3 -122
-7 -270 -7 -208 -1 -280 -5 -319 -16 -46 -14 -55 -14 -87 -1 -28 12 -78 15
-235 13 -110 -1 -200 -5 -200 -10 0 -4 -4 -5 -10 -2 -13 8 -76 -22 -115 -53
-36 -30 -77 -87 -68 -96 4 -3 2 -6 -4 -6 -16 0 -26 -64 -28 -175 -2 -103 13
-181 40 -208 8 -8 12 -17 10 -19 -3 -3 17 -25 43 -49 l48 -45 -1 -440 c-1
-448 2 -480 39 -552 33 -64 130 -122 210 -127 58 -3 247 27 289 46 15 7 27 16
27 21 0 5 4 7 9 4 11 -7 73 49 64 58 -14 13 17 5 72 -20 54 -25 65 -26 149
-21 50 4 105 9 121 12 l30 5 2 -108 c1 -89 6 -118 24 -156 19 -41 91 -117 108
-114 3 1 20 -4 36 -11 17 -7 62 -12 100 -10 69 2 85 2 218 -1 37 0 75 3 84 9
11 6 26 5 42 -1 43 -17 186 -19 240 -2 37 11 56 12 77 4 34 -13 150 -15 184
-2 14 5 37 6 55 1 50 -15 177 -10 194 7 2 2 10 -1 18 -7 7 -7 55 -12 110 -13
94 -1 98 -2 128 -31 72 -70 251 -226 274 -239 9 -5 21 -15 26 -22 6 -7 29 -27
51 -46 69 -55 115 -92 134 -108 10 -8 31 -24 46 -35 15 -11 33 -26 40 -32 7
-7 15 -13 19 -13 3 0 20 -13 38 -30 18 -16 38 -30 45 -30 6 0 12 -4 12 -8 0
-7 163 -130 208 -157 10 -5 19 -13 22 -16 3 -3 41 -30 85 -60 44 -29 86 -60
93 -67 8 -7 18 -10 23 -7 5 4 9 2 9 -3 0 -4 19 -21 43 -37 180 -119 517 -327
517 -319 0 3 7 -1 15 -9 16 -17 96 -43 165 -55 74 -13 172 -5 250 19 44 14
160 78 160 88 0 4 6 8 13 8 14 0 259 150 268 165 3 5 10 10 15 10 14 0 64 31
64 40 0 4 4 8 10 8 18 0 260 167 252 174 -4 4 -2 6 5 4 11 -3 137 80 174 114
11 10 21 18 24 18 9 0 180 131 183 141 2 5 8 9 13 9 6 0 15 5 22 10 29 24 57
47 87 70 34 26 206 167 226 185 6 5 35 30 64 55 109 91 148 128 143 134 -4 3
-1 6 6 6 7 0 29 16 49 35 22 20 47 35 62 35 14 0 32 4 40 9 8 6 19 7 25 3 24
-15 147 -18 186 -4 16 6 36 5 59 -3 48 -17 194 -12 250 8 44 16 90 19 90 7 0
-27 233 -35 279 -11 16 9 31 9 64 0 38 -11 207 -14 267 -6 79 11 185 69 233
128 15 19 29 39 30 44 1 6 8 18 17 28 30 35 49 118 45 207 -2 47 -6 95 -10
108 -5 14 -3 22 4 22 6 0 11 -5 11 -10 0 -6 5 -16 10 -23 6 -7 19 -24 30 -39
45 -59 127 -98 240 -113 175 -24 226 -16 305 43 54 41 95 109 101 169 3 30 4
350 3 593 0 25 0 56 0 70 l1 25 118 0 c133 0 172 14 235 84 63 69 72 112 72
326 0 168 -2 196 -20 235 -21 50 -65 110 -79 110 -5 0 -14 7 -20 15 -6 8 -35
23 -65 34 -50 17 -93 19 -599 20 -301 1 -548 4 -550 6 -3 2 -6 15 -7 27 -2 13
-6 41 -9 63 -3 22 -8 66 -11 98 -2 32 -7 77 -10 100 -3 23 -8 65 -10 92 -3 28
-8 68 -10 90 -3 22 -7 67 -10 100 -4 33 -8 74 -10 90 -2 17 -6 59 -10 95 -3
36 -8 76 -10 90 -2 14 -6 54 -10 90 -4 36 -8 76 -11 90 -2 14 -6 55 -9 90 -3
36 -7 76 -10 90 -2 14 -7 57 -10 95 -3 39 -7 81 -10 93 -2 13 -7 54 -10 90 -3
37 -7 76 -9 87 -3 17 -13 106 -21 200 -6 59 -17 158 -20 173 -1 9 -6 51 -10
92 -4 41 -9 89 -11 105 -2 17 -6 53 -8 80 -3 28 -7 66 -10 85 -3 19 -8 64 -11
100 -9 100 -14 151 -21 205 -6 47 -8 62 -18 133 -11 76 -79 195 -150 261 -50
48 -96 85 -96 76 0 -3 -10 1 -23 10 -35 23 -199 85 -209 79 -4 -3 -8 -1 -8 4
0 6 -12 13 -27 18 -16 4 -30 8 -33 9 -3 1 -23 9 -45 19 -22 10 -44 19 -50 20
-10 2 -143 51 -180 66 -11 4 -58 22 -105 40 -47 18 -118 45 -159 61 -40 16
-77 26 -82 23 -5 -3 -9 -1 -9 3 0 9 -98 48 -117 46 -7 0 -13 3 -13 8 0 5 -6 9
-12 9 -7 0 -60 18 -118 41 -58 22 -113 41 -122 42 -10 1 -18 4 -18 8 0 4 -10
11 -22 14 -42 12 -272 97 -315 116 -24 11 -51 19 -60 19 -10 0 -27 7 -37 15
-11 8 -29 15 -41 15 -12 0 -25 4 -30 9 -6 4 -53 23 -105 41 -52 18 -108 38
-125 45 -16 7 -43 18 -60 23 -16 6 -74 26 -127 45 -54 20 -98 33 -98 29 0 -4
-4 -2 -8 3 -6 9 -118 53 -147 59 -5 1 -14 4 -20 7 -22 13 -159 50 -203 55 -49
6 -142 11 -145 8z"/>
</g>
</svg>
